<svg xmlns="http://www.w3.org/2000/svg" width="1180" height="520" viewBox="0 0 1180 520">
<style>text{font-family:'Times New Roman',serif;fill:#000} .a{stroke:#000;stroke-width:1} .t{font-size:22px;font-weight:bold}.l{font-size:18px}.s{font-size:16px}.n{font-size:15px}</style>
<rect width="1180" height="520" fill="white"/>
<text x="55" y="38" class="t">a  NH3 cost pools before and after Ru price equalization</text>
<line x1="70" y1="420" x2="545" y2="420" class="a"/><line x1="70" y1="80" x2="70" y2="420" class="a"/>
<text x="15" y="250" class="l" transform="rotate(-90 15 250)">Catalyst-dependent cost (USD t-1 NH3)</text>
<!-- stacked bars, scale 13.5 px per USD/t -->
<g stroke="#000" stroke-width="1">
<rect x="120" y="419.1" width="90" height="0.9" fill="#303030"/><rect x="120" y="417.5" width="90" height="1.6" fill="#505050"/><rect x="120" y="406.6" width="90" height="10.9" fill="#707070"/><rect x="120" y="276.2" width="90" height="130.4" fill="#909090"/><rect x="120" y="265.9" width="90" height="10.3" fill="#ababab"/><rect x="120" y="265.9" width="90" height="0" fill="#c0c0c0"/><rect x="120" y="213.6" width="90" height="52.3" fill="#d0d0d0"/>
<rect x="270" y="395.2" width="90" height="24.8" fill="#303030"/><rect x="270" y="394.8" width="90" height="0.4" fill="#505050"/><rect x="270" y="393.8" width="90" height="1.0" fill="#707070"/><rect x="270" y="200.9" width="90" height="192.9" fill="#909090"/><rect x="270" y="199.3" width="90" height="1.6" fill="#ababab"/><rect x="270" y="190.8" width="90" height="8.5" fill="#c0c0c0"/><rect x="270" y="122.5" width="90" height="68.3" fill="#d0d0d0"/>
<rect x="420" y="419.5" width="90" height="0.5" fill="#303030"/><rect x="420" y="418.3" width="90" height="1.2" fill="#505050"/><rect x="420" y="412.7" width="90" height="5.6" fill="#707070"/><rect x="420" y="286.5" width="90" height="126.2" fill="#909090"/><rect x="420" y="273.7" width="90" height="12.8" fill="#ababab"/><rect x="420" y="273.7" width="90" height="0" fill="#c0c0c0"/><rect x="420" y="221.4" width="90" height="52.3" fill="#d0d0d0"/>
</g>
<text x="165" y="205" class="l" text-anchor="middle">15.29</text><text x="315" y="114" class="l" text-anchor="middle">22.03</text><text x="465" y="213" class="l" text-anchor="middle">14.71</text>
<text x="165" y="448" class="l" text-anchor="middle">Fe canonical</text><text x="315" y="448" class="l" text-anchor="middle">Ru canonical</text><text x="465" y="448" class="l" text-anchor="middle">Ru price = Fe</text><text x="465" y="470" class="s" text-anchor="middle">reoptimized</text>
<text x="600" y="38" class="t">b  Canonical Ru - Fe gap by cost pool</text>
<line x1="715" y1="80" x2="715" y2="420" class="a"/><line x1="600" y1="420" x2="1130" y2="420" class="a"/>
<g class="l"><text x="695" y="104" text-anchor="end">metal inventory</text><text x="695" y="148" text-anchor="end">reactor base</text><text x="695" y="192" text-anchor="end">vessel pressure</text><text x="695" y="236" text-anchor="end">fresh compression</text><text x="695" y="280" text-anchor="end">recycle compression</text><text x="695" y="324" text-anchor="end">refrigeration</text><text x="695" y="368" text-anchor="end">compressor CAPEX</text></g>
<g stroke="#000"><rect x="715" y="86" width="106" height="27" fill="#333"/><rect x="710" y="130" width="5" height="27" fill="#bbb"/><rect x="671" y="174" width="44" height="27" fill="#bbb"/><rect x="715" y="218" width="278" height="27" fill="#333"/><rect x="676" y="262" width="39" height="27" fill="#bbb"/><rect x="715" y="306" width="38" height="27" fill="#333"/><rect x="715" y="350" width="71" height="27" fill="#333"/></g>
<g class="s"><text x="828" y="106">+1.76</text><text x="704" y="150" text-anchor="end">-0.09</text><text x="665" y="194" text-anchor="end">-0.73</text><text x="1000" y="238">+4.63</text><text x="670" y="282" text-anchor="end">-0.65</text><text x="760" y="326">+0.63</text><text x="793" y="370">+1.18</text></g>
<text x="865" y="400" class="l">Total = +6.739 USD t-1; equal-price reoptimization flips Ru - Fe to -0.580.</text>
<!-- legend -->
<g class="n"><rect x="75" y="495" width="18" height="12" fill="#303030" stroke="#000"/><text x="100" y="506">metal inventory</text><rect x="220" y="495" width="18" height="12" fill="#707070" stroke="#000"/><text x="245" y="506">vessel pressure</text><rect x="355" y="495" width="18" height="12" fill="#909090" stroke="#000"/><text x="380" y="506">fresh compression</text><rect x="510" y="495" width="18" height="12" fill="#d0d0d0" stroke="#000"/><text x="535" y="506">compressor CAPEX</text></g>
</svg>